<svg id="Layer_1" data-name="Layer 1" xmlns="http://www.w3.org/2000/svg" viewBox="0 0 259 259"><defs><style>.cls-1{fill:#fff;}</style></defs><title>buddy</title><path class="cls-1" d="M241,236H223c-8.9,0-36,0-36,15v48c0,15,27.1,15,36,15h18c8.9,0,36,0,36-15V251C277,236,249.9,236,241,236Zm4.31,51.6a16.89,16.89,0,0,1-11.84,5.4h-.06a1.62,1.62,0,0,1-.05-3.24,13.76,13.76,0,0,0-1-27.51,13.48,13.48,0,0,0-9.66,4.48,14.41,14.41,0,0,0-3.39,7.1l2.6-3a1.62,1.62,0,0,1,2.43,2.14l-5.62,6.4a1.61,1.61,0,0,1-2.56,0c-.29-.41-4.63-7-4.9-7.37a1.62,1.62,0,1,1,2.7-1.79l2.13,3.21a17.65,17.65,0,0,1,4.2-8.85,17,17,0,0,1,24.15-1,17,17,0,0,1,.84,24Z" transform="translate(-118 -128)"/><path class="cls-1" d="M295,242a12,12,0,1,0,12,12A12,12,0,0,0,295,242Z" transform="translate(-118 -128)"/><path class="cls-1" d="M295,272a12,12,0,1,0,12,12A12,12,0,0,0,295,272Z" transform="translate(-118 -128)"/><path class="cls-1" d="M365,128H130a12,12,0,0,0-12,12V375a12,12,0,0,0,12,12H365a12,12,0,0,0,12-12V140A12,12,0,0,0,365,128ZM319,308a18,18,0,0,1-18,18H193a18,18,0,0,1-18-18V242a18,18,0,0,1,18-18h26.83a3,3,0,0,1,.28-1.34A30,30,0,0,1,230,211.29l-18.16-18.17a3,3,0,0,1,4.24-4.24l19.42,19.42a29.75,29.75,0,0,1,22.92,0l19.42-19.42a3,3,0,1,1,4.24,4.24L264,211.29a30,30,0,0,1,9.93,11.37,3,3,0,0,1,.28,1.34H301a18,18,0,0,1,18,18Z" transform="translate(-118 -128)"/></svg>